<svg width="479" height="292" viewBox="0 0 479 292" fill="none" xmlns="http://www.w3.org/2000/svg">
<g filter="url(#filter0_d_240_7249)">
<path d="M331.789 260H105.142C83.1554 259.985 62.0276 252.429 46.1817 238.915C30.3357 225.4 21.0002 206.975 20.1294 187.495C19.2586 168.016 26.92 148.993 41.5098 134.409C56.0996 119.825 76.4866 110.81 98.4029 109.252C101.528 89.6845 111.494 71.4779 126.898 57.194C142.302 42.91 162.369 33.2676 184.276 29.6232C206.183 25.9788 228.827 28.5158 249.023 36.8775C269.219 45.2391 285.95 59.0044 296.862 76.2369C316.877 70.0938 338.502 69.3759 358.978 74.1748C379.455 78.9737 397.855 89.0719 411.832 103.181C425.809 117.291 434.73 134.772 437.456 153.395C440.182 172.018 436.59 190.94 427.138 207.745C421.591 222.93 410.762 236.166 396.203 245.554C381.645 254.942 364.107 259.999 346.105 260H331.789Z" fill="url(#paint0_linear_240_7249)"/>
<path d="M346.105 258.95C355.246 258.95 364.232 257.656 372.816 255.104C381.117 252.636 388.909 249.034 395.978 244.399C402.964 239.818 409.089 234.33 414.181 228.087C419.337 221.767 423.317 214.814 426.011 207.422L426.039 207.346L426.079 207.275C429.662 200.927 432.421 194.211 434.279 187.314C436.192 180.217 437.161 172.885 437.161 165.52C437.161 159.18 436.441 152.845 435.021 146.689C433.636 140.691 431.571 134.791 428.881 129.153C426.241 123.617 422.972 118.278 419.166 113.283C415.397 108.336 411.067 103.683 406.299 99.4551C401.53 95.2269 396.283 91.3883 390.703 88.0458C385.07 84.6715 379.048 81.7733 372.805 79.4318C366.446 77.0471 359.792 75.2156 353.027 73.9882C346.085 72.7286 338.94 72.09 331.789 72.09C319.95 72.09 308.33 73.8176 297.25 77.2247L296.315 77.5122L295.83 76.7475C286.813 62.5316 273.697 50.5929 257.901 42.2222C249.912 37.9889 241.329 34.7175 232.391 32.499C223.169 30.2103 213.591 29.0498 203.922 29.0498C190.917 29.0498 178.221 31.1252 166.189 35.2183C154.565 39.1724 143.901 44.8843 134.495 52.1952C125.142 59.4641 117.381 68.0407 111.427 77.6866C105.326 87.5695 101.338 98.2375 99.5752 109.394L99.4432 110.229L98.4951 110.295C87.889 111.031 77.6846 113.507 68.1654 117.654C58.9159 121.684 50.6564 127.134 43.6164 133.853C29.1506 147.66 21.184 165.65 21.184 184.507C21.184 194.557 23.4036 204.306 27.7813 213.483C29.8854 217.894 32.4897 222.148 35.5219 226.128C38.5256 230.07 41.9751 233.777 45.7746 237.146C49.5741 240.515 53.755 243.574 58.2009 246.237C62.6893 248.925 67.4873 251.234 72.4618 253.1C82.8118 256.982 93.8068 258.95 105.141 258.95H331.789H346.105ZM346.105 260H331.789H105.141C58.1194 260 20 226.2 20 184.507C20 144.825 54.5296 112.293 98.4027 109.248C105.66 63.3326 150.137 28 203.922 28C243.824 28 278.603 47.4452 296.862 76.2329C307.804 72.868 319.556 71.0402 331.789 71.0402C390.639 71.0402 438.345 113.341 438.345 165.52C438.345 180.696 434.309 195.038 427.138 207.745C416.085 238.068 383.984 260 346.105 260Z" fill="white" fill-opacity="0.8"/>
</g>
<defs>
<filter id="filter0_d_240_7249" x="0" y="0" width="478.345" height="292" filterUnits="userSpaceOnUse" color-interpolation-filters="sRGB">
<feFlood flood-opacity="0" result="BackgroundImageFix"/>
<feColorMatrix in="SourceAlpha" type="matrix" values="0 0 0 0 0 0 0 0 0 0 0 0 0 0 0 0 0 0 127 0" result="hardAlpha"/>
<feOffset dx="10" dy="2"/>
<feGaussianBlur stdDeviation="15"/>
<feColorMatrix type="matrix" values="0 0 0 0 0.61408 0 0 0 0 0.649242 0 0 0 0 0.679167 0 0 0 0.796 0"/>
<feBlend mode="normal" in2="BackgroundImageFix" result="effect1_dropShadow_240_7249"/>
<feBlend mode="normal" in="SourceGraphic" in2="effect1_dropShadow_240_7249" result="shape"/>
</filter>
<linearGradient id="paint0_linear_240_7249" x1="229.203" y1="28.0024" x2="327.823" y2="296.918" gradientUnits="userSpaceOnUse">
<stop stop-color="white" stop-opacity="0.604"/>
<stop offset="1" stop-color="white" stop-opacity="0.2"/>
</linearGradient>
</defs>
</svg>
