<svg width="183" height="119" viewBox="0 0 183 119" fill="none" xmlns="http://www.w3.org/2000/svg">
<g filter="url(#filter0_d_240_7413)">
<path d="M124.742 95.0001H47.7898C40.3249 94.9951 33.1515 92.4298 27.7714 87.8413C22.3913 83.2528 19.2217 76.9969 18.926 70.3831C18.6304 63.7694 21.2316 57.3106 26.1852 52.359C31.1388 47.4073 38.0607 44.3466 45.5018 43.8177C46.5629 37.174 49.9465 30.9924 55.1765 26.1427C60.4065 21.2929 67.2198 18.0191 74.6577 16.7817C82.0956 15.5444 89.7839 16.4058 96.6409 19.2447C103.498 22.0837 109.178 26.7574 112.883 32.6082C119.679 30.5225 127.021 30.2787 133.973 31.9081C140.926 33.5374 147.173 36.966 151.919 41.7565C156.664 46.547 159.693 52.4823 160.618 58.8053C161.544 65.1284 160.324 71.5525 157.115 77.2584C155.232 82.414 151.555 86.908 146.612 90.0955C141.669 93.283 135.715 95 129.603 95.0001H124.742Z" fill="#FDFDFD"/>
<path d="M129.601 94.6425C132.705 94.6425 135.756 94.2031 138.67 93.3366C141.489 92.4987 144.134 91.276 146.534 89.7023C148.906 88.1468 150.986 86.2834 152.715 84.1639C154.465 82.018 155.817 79.6574 156.731 77.1476L156.741 77.1219L156.754 77.0977C157.971 74.9423 158.908 72.6621 159.539 70.3205C160.188 67.9109 160.517 65.4213 160.517 62.9208C160.517 60.7683 160.273 58.6173 159.79 56.5274C159.32 54.4909 158.619 52.4877 157.706 50.5734C156.809 48.6939 155.7 46.881 154.407 45.1852C153.128 43.5054 151.658 41.9258 150.039 40.4902C148.42 39.0546 146.638 37.7513 144.744 36.6165C142.831 35.4708 140.786 34.4868 138.667 33.6918C136.508 32.8822 134.248 32.2603 131.951 31.8436C129.595 31.4159 127.168 31.1991 124.741 31.1991C120.721 31.1991 116.776 31.7857 113.014 32.9425L112.696 33.0401L112.532 32.7804C109.47 27.9538 105.017 23.9003 99.6538 21.0583C96.9414 19.621 94.0274 18.5103 90.9926 17.757C87.8617 16.9799 84.6097 16.5859 81.3268 16.5859C76.9111 16.5859 72.6008 17.2906 68.5154 18.6803C64.5687 20.0228 60.9483 21.9621 57.7546 24.4443C54.5792 26.9123 51.9441 29.8243 49.9224 33.0993C47.8511 36.4548 46.4972 40.0768 45.8985 43.8647L45.8537 44.1483L45.5318 44.1706C41.9308 44.4205 38.4662 45.2612 35.2342 46.6692C32.0937 48.0373 29.2894 49.8878 26.8992 52.1692C21.9877 56.8571 19.2828 62.9649 19.2828 69.3675C19.2828 72.7798 20.0365 76.0897 21.5228 79.2055C22.2372 80.7031 23.1214 82.1475 24.1509 83.4987C25.1707 84.8371 26.3419 86.0957 27.632 87.2396C28.922 88.3834 30.3415 89.4219 31.851 90.3261C33.3749 91.2389 35.0039 92.023 36.6929 92.6564C40.207 93.9743 43.94 94.6425 47.7884 94.6425H124.741H129.601ZM129.601 94.9989H124.741H47.7884C31.8233 94.9989 18.8809 83.5233 18.8809 69.3675C18.8809 55.8943 30.6045 44.8491 45.5005 43.8153C47.9644 28.2258 63.0654 16.2295 81.3268 16.2295C94.8745 16.2295 106.683 22.8316 112.882 32.6057C116.597 31.4633 120.587 30.8427 124.741 30.8427C144.722 30.8427 160.919 45.2047 160.919 62.9208C160.919 68.0733 159.549 72.943 157.114 77.2572C153.361 87.5527 142.462 94.9989 129.601 94.9989Z" fill="#FDFDFD"/>
</g>
<defs>
<filter id="filter0_d_240_7413" x="0.880859" y="0.229492" width="182.039" height="118.771" filterUnits="userSpaceOnUse" color-interpolation-filters="sRGB">
<feFlood flood-opacity="0" result="BackgroundImageFix"/>
<feColorMatrix in="SourceAlpha" type="matrix" values="0 0 0 0 0 0 0 0 0 0 0 0 0 0 0 0 0 0 127 0" result="hardAlpha"/>
<feOffset dx="2" dy="4"/>
<feGaussianBlur stdDeviation="10"/>
<feColorMatrix type="matrix" values="0 0 0 0 0.826389 0 0 0 0 0.83014 0 0 0 0 0.833333 0 0 0 0.796 0"/>
<feBlend mode="normal" in2="BackgroundImageFix" result="effect1_dropShadow_240_7413"/>
<feBlend mode="normal" in="SourceGraphic" in2="effect1_dropShadow_240_7413" result="shape"/>
</filter>
</defs>
</svg>
