<svg width="414" height="357" viewBox="0 0 414 357" fill="none" xmlns="http://www.w3.org/2000/svg">
<g filter="url(#filter0_f_240_7227)">
<g filter="url(#filter1_d_240_7227)">
<path d="M121.818 272C123.418 272.018 139.636 297.341 139.636 307.182C139.636 311.908 137.759 316.44 134.417 319.781C131.076 323.123 126.544 325 121.818 325C117.092 325 112.56 323.123 109.219 319.781C105.877 316.44 104 311.908 104 307.182C104 297.342 120.219 271.982 121.818 272Z" fill="#64A7E0"/>
<path d="M108.233 313.841C110.014 314.386 112.276 312.147 113.287 308.84C114.298 305.534 113.674 302.413 111.894 301.868C110.113 301.324 107.85 303.563 106.84 306.869C105.829 310.176 106.453 313.297 108.233 313.841Z" fill="white"/>
<path d="M214.818 272C216.418 272.018 232.636 297.341 232.636 307.182C232.636 311.908 230.759 316.44 227.417 319.781C224.076 323.123 219.544 325 214.818 325C210.092 325 205.56 323.123 202.219 319.781C198.877 316.44 197 311.908 197 307.182C197 297.342 213.219 271.982 214.818 272Z" fill="#64A7E0"/>
<path d="M201.233 313.841C203.014 314.386 205.276 312.147 206.287 308.84C207.298 305.534 206.674 302.413 204.894 301.868C203.113 301.324 200.85 303.563 199.84 306.869C198.829 310.176 199.453 313.297 201.233 313.841Z" fill="white"/>
<path d="M307.818 272C309.418 272.018 325.636 297.341 325.636 307.182C325.636 311.908 323.759 316.44 320.417 319.781C317.076 323.123 312.544 325 307.818 325C303.092 325 298.56 323.123 295.219 319.781C291.877 316.44 290 311.908 290 307.182C290 297.342 306.219 271.982 307.818 272Z" fill="#64A7E0"/>
<path d="M294.233 313.841C296.014 314.386 298.276 312.147 299.287 308.84C300.298 305.534 299.674 302.413 297.894 301.868C296.113 301.324 293.85 303.563 292.84 306.869C291.829 310.176 292.453 313.297 294.233 313.841Z" fill="white"/>
<path d="M168.818 194C170.418 194.018 186.636 219.341 186.636 229.182C186.636 233.908 184.759 238.44 181.417 241.781C178.076 245.123 173.544 247 168.818 247C164.092 247 159.56 245.123 156.219 241.781C152.877 238.44 151 233.908 151 229.182C151 219.342 167.219 193.982 168.818 194Z" fill="#64A7E0"/>
<path d="M155.233 235.841C157.014 236.386 159.276 234.147 160.287 230.84C161.298 227.534 160.674 224.413 158.894 223.868C157.113 223.324 154.85 225.563 153.84 228.869C152.829 232.176 153.453 235.297 155.233 235.841Z" fill="white"/>
<path d="M266.818 194C268.418 194.018 284.636 219.341 284.636 229.182C284.636 233.908 282.759 238.44 279.417 241.781C276.076 245.123 271.544 247 266.818 247C262.092 247 257.56 245.123 254.219 241.781C250.877 238.44 249 233.908 249 229.182C249 219.342 265.219 193.982 266.818 194Z" fill="#64A7E0"/>
<path d="M253.233 235.841C255.014 236.386 257.276 234.147 258.287 230.84C259.298 227.534 258.674 224.413 256.894 223.868C255.113 223.324 252.85 225.563 251.84 228.869C250.829 232.176 251.453 235.297 253.233 235.841Z" fill="white"/>
<path d="M283.345 249H91.913C73.3426 248.986 55.4976 241.789 42.1137 228.915C28.7298 216.041 20.8447 198.489 20.1092 179.933C19.3737 161.377 25.8448 143.256 38.1677 129.364C50.4906 115.471 67.71 106.884 86.221 105.4C88.8608 86.7599 97.2781 69.4166 110.289 55.8099C123.299 42.2032 140.248 33.0179 158.752 29.5463C177.255 26.0747 196.381 28.4915 213.439 36.4567C230.497 44.4218 244.628 57.5345 253.845 73.9499C270.75 68.0981 289.015 67.4142 306.31 71.9856C323.605 76.557 339.146 86.1764 350.952 99.6169C362.757 113.057 370.292 129.71 372.594 147.45C374.896 165.19 371.862 183.214 363.879 199.223C359.194 213.688 350.047 226.296 337.751 235.239C325.455 244.182 310.641 249 295.437 249H283.345Z" fill="url(#paint0_linear_240_7227)"/>
<path d="M295.437 248C303.157 248 310.748 246.767 317.998 244.336C325.009 241.985 331.59 238.554 337.56 234.139C343.462 229.775 348.635 224.547 352.936 218.6C357.29 212.58 360.652 205.957 362.928 198.915L362.951 198.843L362.985 198.775C366.011 192.728 368.341 186.33 369.911 179.761C371.526 173 372.345 166.015 372.345 158.999C372.345 152.96 371.737 146.925 370.537 141.062C369.368 135.348 367.623 129.728 365.352 124.357C363.121 119.084 360.361 113.997 357.146 109.24C353.962 104.527 350.306 100.095 346.278 96.0672C342.25 92.0395 337.819 88.3828 333.106 85.1988C328.348 81.9845 323.261 79.2237 317.988 76.9932C312.617 74.7216 306.997 72.9769 301.283 71.8077C295.42 70.6079 289.385 69.9995 283.345 69.9995C273.346 69.9995 263.531 71.6452 254.172 74.8908L253.383 75.1646L252.973 74.4362C245.357 60.8943 234.279 49.5217 220.937 41.5479C214.189 37.5153 206.94 34.399 199.391 32.2857C191.602 30.1055 183.512 29 175.345 29C164.361 29 153.638 30.977 143.475 34.876C133.657 38.6427 124.65 44.0837 116.705 51.048C108.806 57.9722 102.251 66.1422 97.2213 75.3308C92.0685 84.7451 88.7006 94.9073 87.2113 105.535L87.0998 106.33L86.299 106.393C77.3408 107.094 68.7219 109.453 60.6818 113.403C52.8694 117.242 45.8932 122.434 39.947 128.834C27.7289 141.987 21 159.123 21 177.087C21 186.66 22.8748 195.947 26.5723 204.689C28.3495 208.891 30.5491 212.943 33.1102 216.734C35.6472 220.489 38.5607 224.02 41.7699 227.23C44.9791 230.439 48.5104 233.352 52.2655 235.889C56.0565 238.45 60.109 240.65 64.3106 242.427C73.0525 246.125 82.3391 248 91.9127 248H283.345H295.437ZM295.437 249H283.345H91.9127C52.1966 249 20 216.803 20 177.087C20 139.286 49.1646 108.297 86.221 105.396C92.3504 61.6574 129.917 28 175.345 28C209.048 28 238.422 46.5232 253.845 73.946C263.087 70.7407 273.012 68.9995 283.345 68.9995C333.051 68.9995 373.345 109.294 373.345 158.999C373.345 173.456 369.936 187.118 363.879 199.223C354.544 228.108 327.431 249 295.437 249Z" fill="white" fill-opacity="0.5"/>
</g>
</g>
<defs>
<filter id="filter0_f_240_7227" x="16" y="24" width="361.345" height="305" filterUnits="userSpaceOnUse" color-interpolation-filters="sRGB">
<feFlood flood-opacity="0" result="BackgroundImageFix"/>
<feBlend mode="normal" in="SourceGraphic" in2="BackgroundImageFix" result="shape"/>
<feGaussianBlur stdDeviation="2" result="effect1_foregroundBlur_240_7227"/>
</filter>
<filter id="filter1_d_240_7227" x="0" y="0" width="413.345" height="357" filterUnits="userSpaceOnUse" color-interpolation-filters="sRGB">
<feFlood flood-opacity="0" result="BackgroundImageFix"/>
<feColorMatrix in="SourceAlpha" type="matrix" values="0 0 0 0 0 0 0 0 0 0 0 0 0 0 0 0 0 0 127 0" result="hardAlpha"/>
<feOffset dx="10" dy="2"/>
<feGaussianBlur stdDeviation="15"/>
<feColorMatrix type="matrix" values="0 0 0 0 0.501961 0 0 0 0 0.501961 0 0 0 0 0.501961 0 0 0 0.302 0"/>
<feBlend mode="normal" in2="BackgroundImageFix" result="effect1_dropShadow_240_7227"/>
<feBlend mode="normal" in="SourceGraphic" in2="effect1_dropShadow_240_7227" result="shape"/>
</filter>
<linearGradient id="paint0_linear_240_7227" x1="196.698" y1="28.0024" x2="299.341" y2="276.166" gradientUnits="userSpaceOnUse">
<stop stop-color="white" stop-opacity="0.604"/>
<stop offset="1" stop-color="white" stop-opacity="0.2"/>
</linearGradient>
</defs>
</svg>
