<svg width="181" height="136" viewBox="0 0 181 136" fill="none" xmlns="http://www.w3.org/2000/svg">
<g filter="url(#filter0_d_240_7421)">
<path d="M109.543 103.215H44.5472C38.2421 103.21 32.1833 100.767 27.6391 96.3957C23.095 92.0248 20.4178 86.0655 20.1681 79.7653C19.9184 73.4652 22.1155 67.3126 26.2994 62.5957C30.4833 57.8788 36.3297 54.9633 42.6147 54.4595C43.5109 48.1307 46.3688 42.2423 50.7862 37.6224C55.2036 33.0026 60.9583 29.884 67.2405 28.7053C73.5228 27.5266 80.0165 28.3472 85.8081 31.0516C91.5997 33.7559 96.3977 38.208 99.527 43.7814C105.267 41.7946 111.468 41.5624 117.34 43.1145C123.212 44.6666 128.489 47.9326 132.497 52.496C136.505 57.0593 139.063 62.7132 139.845 68.7364C140.627 74.7597 139.597 80.8792 136.886 86.3146C135.296 91.2257 132.19 95.5067 128.015 98.543C123.84 101.579 118.811 103.215 113.649 103.215H109.543Z" fill="white" fill-opacity="0.78"/>
<path d="M113.647 102.875C116.268 102.875 118.845 102.456 121.307 101.631C123.687 100.833 125.922 99.6679 127.949 98.1689C129.952 96.6871 131.709 94.912 133.169 92.8931C134.647 90.8489 135.789 88.6002 136.562 86.2095L136.569 86.185L136.581 86.1619C137.608 84.1087 138.4 81.9366 138.933 79.7061C139.481 77.4107 139.759 75.0391 139.759 72.6572C139.759 70.6067 139.553 68.5577 139.145 66.5669C138.748 64.627 138.156 62.7187 137.385 60.8953C136.627 59.1048 135.69 57.3779 134.599 55.7625C133.518 54.1623 132.276 52.6576 130.909 51.2901C129.541 49.9226 128.036 48.6811 126.436 47.6001C124.821 46.5087 123.094 45.5714 121.303 44.8141C119.48 44.0428 117.572 43.4504 115.632 43.0534C113.641 42.6461 111.592 42.4395 109.541 42.4395C106.146 42.4395 102.814 42.9983 99.6365 44.1002L99.3684 44.1932L99.2293 43.9459C96.6436 39.3481 92.8824 35.4868 88.3523 32.7795C86.0614 31.4104 83.6001 30.3523 81.0368 29.6348C78.3924 28.8945 75.6457 28.5192 72.8729 28.5192C69.1433 28.5192 65.5026 29.1905 62.052 30.5143C58.7186 31.7931 55.6606 33.6405 52.9631 36.005C50.2812 38.356 48.0555 41.1299 46.3479 44.2496C44.5984 47.446 43.4549 50.8963 42.9492 54.5046L42.9114 54.7747L42.6395 54.796C39.598 55.0341 36.6717 55.8349 33.9418 57.1761C31.2893 58.4794 28.9208 60.2421 26.9019 62.4154C22.7535 66.881 20.4689 72.6992 20.4689 78.7982C20.4689 82.0487 21.1054 85.2017 22.3608 88.1698C22.9642 89.5963 23.7111 90.9723 24.5806 92.2594C25.442 93.5344 26.4312 94.7333 27.5208 95.8229C28.6104 96.9125 29.8093 97.9017 31.0843 98.7631C32.3714 99.6326 33.7474 100.379 35.1739 100.983C38.142 102.238 41.295 102.875 44.5455 102.875H109.541H113.647ZM113.647 103.214H109.541H44.5455C31.0609 103.214 20.1294 92.2828 20.1294 78.7982C20.1294 65.9639 30.0315 55.4424 42.613 54.4575C44.6941 39.6072 57.4488 28.1797 72.8729 28.1797C84.3156 28.1797 94.289 34.4688 99.5252 43.7795C102.663 42.6912 106.033 42.1 109.541 42.1C126.418 42.1 140.099 55.7811 140.099 72.6572C140.099 77.5654 138.941 82.2042 136.885 86.3139C133.715 96.1212 124.509 103.214 113.647 103.214Z" fill="white" fill-opacity="0.78"/>
</g>
<defs>
<filter id="filter0_d_240_7421" x="0.129395" y="0.179688" width="179.97" height="135.036" filterUnits="userSpaceOnUse" color-interpolation-filters="sRGB">
<feFlood flood-opacity="0" result="BackgroundImageFix"/>
<feColorMatrix in="SourceAlpha" type="matrix" values="0 0 0 0 0 0 0 0 0 0 0 0 0 0 0 0 0 0 127 0" result="hardAlpha"/>
<feOffset dx="10" dy="2"/>
<feGaussianBlur stdDeviation="15"/>
<feColorMatrix type="matrix" values="0 0 0 0 0.7375 0 0 0 0 0.731354 0 0 0 0 0.731354 0 0 0 0.502 0"/>
<feBlend mode="normal" in2="BackgroundImageFix" result="effect1_dropShadow_240_7421"/>
<feBlend mode="normal" in="SourceGraphic" in2="effect1_dropShadow_240_7421" result="shape"/>
</filter>
</defs>
</svg>
